<svg xmlns="http://www.w3.org/2000/svg" viewBox="0 0 24 24" width="24" height="24">
	<style>
		tspan { white-space:pre }
		.shp0 { fill: rgba(255, 255, 255, 0.7) }
	</style>
	<g id="Layer">
		<path id="Layer" fill-rule="evenodd" class="shp0" d="M21.7 16.47C21.96 16.66 22.06 17 21.96 17.31C21.86 17.62 21.57 17.82 21.25 17.82L16.33 17.82C16.23 20.13 14.33 21.98 12 21.98C9.67 21.98 7.77 20.13 7.67 17.82L2.75 17.82C2.43 17.82 2.14 17.61 2.04 17.31C1.94 17 2.04 16.66 2.3 16.47C2.38 16.4 4.44 14.77 4.4 10.44C4.38 7.91 5.22 5.66 6.75 4.1C8.13 2.71 9.99 1.94 11.99 1.93L12.01 1.93C14.01 1.94 15.87 2.71 17.25 4.1C18.78 5.66 19.61 7.91 19.59 10.44C19.56 14.83 21.68 16.45 21.7 16.47L21.7 16.47ZM12 20.48C13.5 20.48 14.73 19.3 14.83 17.82L9.17 17.82C9.27 19.3 10.5 20.48 12 20.48L12 20.48ZM4.38 16.32L19.62 16.32C18.88 15.19 18.07 13.29 18.09 10.43C18.11 8.26 17.45 6.44 16.18 5.16C15.09 4.05 13.6 3.44 12 3.43C10.4 3.44 8.91 4.05 7.82 5.16C6.55 6.44 5.89 8.26 5.9 10.42C5.93 13.29 5.12 15.19 4.38 16.32L4.38 16.32Z" />
	</g>
</svg>