<svg xmlns="http://www.w3.org/2000/svg" viewBox="0 0 24 24" width="24" height="24"><style>tspan { white-space:pre }.shp0 { fill: rgba(255, 255, 255, 0.7) }} </style><g id="Layer"><path id="Layer" fill-rule="evenodd" class="shp0" d="M14.05 2.24C18.42 2.24 21.84 5.66 21.85 10.03L21.85 10.05C21.84 12.39 20.7 14.75 18.8 16.36C17.19 17.72 10.98 21.7 10.71 21.86C10.59 21.94 10.45 21.98 10.31 21.98C10.06 21.98 9.82 21.86 9.68 21.63C9.61 21.52 9.56 21.34 9.56 21.23L9.56 17.4C5.28 17.24 2.1 14.13 2.1 10.03C2.1 5.66 5.52 2.23 9.9 2.23L9.9 2.23L14.05 2.24L14.05 2.24ZM17.83 15.21C19.41 13.88 20.34 11.95 20.35 10.04C20.35 6.51 17.58 3.74 14.05 3.74L14.04 3.74L9.9 3.73C6.36 3.73 3.6 6.5 3.6 10.03C3.6 13.44 6.25 15.92 9.91 15.92L10.31 15.92C10.73 15.92 11.06 16.26 11.06 16.67L11.06 19.86C12.97 18.62 16.7 16.17 17.83 15.21L17.83 15.21Z" /></g></svg>