<svg xmlns="http://www.w3.org/2000/svg" viewBox="0 0 24 24" width="24" height="24">
	<style>
		tspan { white-space:pre }
		.shp0 { fill: rgba(255, 255, 255, 0.7) } 
	</style>
	<g id="Layer">
		<path id="Layer" fill-rule="evenodd" class="shp0" d="M21.53 20.47C21.82 20.76 21.82 21.24 21.53 21.53C21.38 21.68 21.19 21.75 21 21.75C20.81 21.75 20.61 21.68 20.47 21.53L16.81 17.87C15.24 19.2 13.21 20 11 20C6.03 20 2 15.97 2 11C2 6.03 6.03 2 11 2C15.97 2 20 6.03 20 11C20 13.21 19.2 15.24 17.87 16.81L21.53 20.47ZM11 18.5C15.13 18.5 18.5 15.13 18.5 11C18.5 6.87 15.13 3.5 11 3.5C6.87 3.5 3.5 6.87 3.5 11C3.5 15.13 6.87 18.5 11 18.5Z" />
	</g>
</svg>