<svg xmlns="http://www.w3.org/2000/svg" viewBox="0 0 24 24" width="24" height="24">
	<style>
		tspan { white-space:pre }
		.shp0 { fill: rgba(255, 255, 255, 0.7) } 
	</style>
	<g id="Layer">
		<path id="Layer" fill-rule="evenodd" class="shp0" d="M22.58 7.35C23.06 7.62 23.24 8.22 22.98 8.71C22.72 9.19 22.11 9.38 21.63 9.11L20.89 8.71L19.3 19.94C19.08 21.18 17.99 22.03 16.64 22.03L7.36 22.03C6.01 22.03 4.92 21.18 4.7 19.96L3.11 8.71L2.38 9.11C2.22 9.19 2.06 9.23 1.9 9.23C1.54 9.23 1.2 9.04 1.02 8.71C0.76 8.22 0.94 7.61 1.43 7.35L11.53 1.9C11.82 1.74 12.18 1.74 12.47 1.9L22.58 7.35L22.58 7.35ZM15.25 12.19C15.25 10.39 13.79 8.94 12 8.94C10.21 8.94 8.75 10.39 8.75 12.19C8.75 13.98 10.21 15.44 12 15.44C13.79 15.44 15.25 13.98 15.25 12.19Z" />
	</g>
</svg>