<svg xmlns="http://www.w3.org/2000/svg" viewBox="0 0 24 24" width="24" height="24">
	<style>
		tspan { white-space:pre }
		.shp0 { fill: rgba(255, 255, 255, 0.7) }
	</style>
	<g id="Layer">
		<path id="Layer" fill-rule="evenodd" class="shp0" d="M12 21.64L11.99 21.64C9.4 21.59 1.95 14.86 1.95 8.48C1.95 5.41 4.47 2.72 7.35 2.72C9.64 2.72 11.18 4.3 12 5.45C12.81 4.31 14.35 2.72 16.64 2.72C19.52 2.72 22.05 5.41 22.05 8.48C22.05 14.86 14.59 21.59 12.01 21.64L12 21.64L12 21.64ZM7.35 4.22C5.27 4.22 3.45 6.21 3.45 8.48C3.45 14.22 10.48 20.08 12 20.14C13.52 20.08 20.55 14.22 20.55 8.48C20.55 6.21 18.73 4.22 16.65 4.22C14.12 4.22 12.71 7.16 12.7 7.19C12.47 7.75 11.54 7.75 11.31 7.19C11.3 7.16 9.88 4.22 7.36 4.22L7.35 4.22Z" />
	</g>
</svg>