<svg xmlns="http://www.w3.org/2000/svg" viewBox="0 0 24 24" width="24" height="24">
	<style>
		tspan { white-space:pre }
		.shp0 { fill: rgba(255, 255, 255, 0.7) } 
	</style>
	<g id="Layer">
		<path id="Layer" fill-rule="evenodd" class="shp0" d="M22 5.77L22 18.27C22 19.78 20.77 21.02 19.25 21.02L4.75 21.02C3.23 21.02 2 19.78 2 18.27L2 5.77C2 4.25 3.23 3.02 4.75 3.02L19.25 3.02C20.77 3.02 22 4.25 22 5.77ZM4.75 4.52C4.06 4.52 3.5 5.08 3.5 5.77L3.5 6.48L11.55 11.85C11.82 12.03 12.18 12.03 12.45 11.85L20.5 6.48L20.5 5.77C20.5 5.08 19.94 4.52 19.25 4.52L4.75 4.52ZM19.25 19.51C19.94 19.51 20.5 18.95 20.5 18.26L20.5 8.24L13.26 13.07C12.88 13.33 12.44 13.45 12 13.45C11.56 13.45 11.12 13.33 10.74 13.07L3.5 8.24L3.5 18.27C3.5 18.96 4.06 19.52 4.75 19.52L19.25 19.52L19.25 19.51Z" />
	</g>
</svg>