<svg xmlns="http://www.w3.org/2000/svg" viewBox="0 0 24 24" width="24" height="24">
	<style>
		tspan { white-space:pre }
		.shp0 { fill: rgba(255, 255, 255, 0.7) } 
	</style>
	<g id="Layer">
		<path id="Layer" class="shp0" d="M8.8 7.2L5.6 7.2L5.6 3.9C5.6 3.5 5.3 3.1 4.8 3.1C4.3 3.1 4.1 3.5 4.1 3.9L4.1 7.2L0.8 7.2C0.4 7.2 0 7.5 0 8C0 8.5 0.3 8.8 0.8 8.8L4.1 8.8L4.1 12.1C4.1 12.5 4.4 12.9 4.9 12.9C5.4 12.9 5.7 12.6 5.7 12.1L5.7 8.7L9 8.7C9.4 8.7 9.8 8.4 9.8 7.9C9.8 7.4 9.3 7.2 8.8 7.2L8.8 7.2ZM23.8 2.3L23.8 2.2L23.7 2.2C23.6 2.2 14.5 3.4 9.3 13.9C5.5 21.5 5.7 23.8 6 23.8C6.3 23.9 9.4 17.3 12.7 14.6C17.9 13.5 19.3 11 19.3 11C19.3 11 17.8 11.2 17.2 11.2C16.4 11.2 15.8 11 15.5 10.9C16.8 9.7 17.9 9.4 19 9.2C19.9 9 20.8 8.8 22 8C24.2 6.4 23.9 2.5 23.8 2.3L23.8 2.3Z" />
	</g>
</svg>