<svg xmlns="http://www.w3.org/2000/svg" viewBox="0 0 24 24" width="24" height="24">
	<style>
		tspan { white-space:pre }
		.shp0 { fill: rgba(255, 255, 255, 0.7) }
	</style>
	<g id="Layer">
		<path id="Layer" class="shp0" d="M23.77 15.67C23.48 15.38 23 15.38 22.71 15.67L20.49 17.89L20.49 7.65C20.49 5.58 18.81 3.9 16.74 3.9L10.89 3.9C10.48 3.9 10.14 4.24 10.14 4.65C10.14 5.06 10.48 5.4 10.89 5.4L16.74 5.4C17.98 5.4 18.99 6.41 18.99 7.65L18.99 17.89L16.77 15.67C16.48 15.38 16 15.38 15.71 15.67C15.42 15.96 15.42 16.44 15.71 16.73L19.21 20.23C19.36 20.38 19.55 20.45 19.74 20.45C19.93 20.45 20.12 20.38 20.27 20.23L23.77 16.73C24.06 16.44 24.06 15.96 23.77 15.67L23.77 15.67ZM13.11 18.95L7.26 18.95C6.02 18.95 5.01 17.94 5.01 16.7L5.01 6.46L7.23 8.68C7.38 8.83 7.57 8.9 7.76 8.9C7.95 8.9 8.15 8.83 8.29 8.68C8.58 8.39 8.58 7.91 8.29 7.62L4.79 4.12C4.5 3.83 4.02 3.83 3.73 4.12L0.23 7.62C-0.06 7.91 -0.06 8.39 0.23 8.68C0.53 8.97 1 8.97 1.29 8.68L3.51 6.46L3.51 16.7C3.51 18.77 5.2 20.45 7.26 20.45L13.11 20.45C13.53 20.45 13.86 20.11 13.86 19.7C13.86 19.29 13.53 18.95 13.11 18.95L13.11 18.95Z" />
	</g>
</svg>