<svg xmlns="http://www.w3.org/2000/svg" viewBox="0 0 24 24" width="24" height="24">
	<style>
		tspan { white-space:pre }
		.shp0 { fill: rgba(255, 255, 255, 0.7) }
	</style>
	<g id="Layer">
		<path id="Layer" class="shp0" d="M17.53 7.47L12.53 2.47C12.24 2.18 11.76 2.18 11.47 2.47L6.47 7.47C6.18 7.76 6.18 8.24 6.47 8.53C6.76 8.82 7.24 8.82 7.53 8.53L11.25 4.81L11.25 15C11.25 15.41 11.59 15.75 12 15.75C12.41 15.75 12.75 15.41 12.75 15L12.75 4.81L16.47 8.53C16.62 8.68 16.81 8.75 17 8.75C17.19 8.75 17.38 8.68 17.53 8.53C17.82 8.24 17.82 7.76 17.53 7.47L17.53 7.47Z" />
		<path id="Layer" class="shp0" d="M19.71 21.94L4.29 21.94C3.03 21.94 2 20.92 2 19.65L2 14C2 13.59 2.34 13.25 2.75 13.25C3.16 13.25 3.5 13.59 3.5 14L3.5 19.65C3.5 20.09 3.85 20.44 4.29 20.44L19.71 20.44C20.14 20.44 20.5 20.09 20.5 19.65L20.5 14C20.5 13.59 20.84 13.25 21.25 13.25C21.66 13.25 22 13.59 22 14L22 19.65C22 20.92 20.97 21.94 19.71 21.94L19.71 21.94Z" />
	</g>
</svg>