<svg xmlns="http://www.w3.org/2000/svg" viewBox="0 0 24 24" width="24" height="24">
	<style>
		tspan { white-space:pre }
		.shp0 { fill: rgba(255, 255, 255, 0.7) } 
	</style>
	<g id="Layer">
		<path id="Layer" fill-rule="evenodd" class="shp0" d="M22.77 10.51C23.06 10.62 23.25 10.89 23.25 11.2C23.25 11.51 23.06 11.79 22.77 11.9L17.15 14.09L14.99 20.59C14.89 20.9 14.6 21.11 14.28 21.11C13.96 21.11 13.67 20.9 13.57 20.59L11.41 14.1L5.79 11.9C5.5 11.79 5.31 11.51 5.31 11.21C5.31 10.9 5.5 10.62 5.79 10.51L11.41 8.31L13.57 1.81C13.67 1.51 13.96 1.3 14.28 1.3C14.6 1.3 14.89 1.51 14.99 1.81L17.15 8.31L22.77 10.51L22.77 10.51ZM16.28 12.83L20.44 11.21L16.28 9.59C16.07 9.51 15.91 9.34 15.84 9.12L14.28 4.43L12.72 9.12C12.65 9.33 12.49 9.5 12.28 9.58L8.13 11.21L12.28 12.83C12.49 12.91 12.65 13.08 12.72 13.29L14.28 17.98L15.84 13.29C15.91 13.08 16.07 12.91 16.28 12.83L16.28 12.83ZM6.66 3.81C7.08 3.81 7.41 4.15 7.41 4.56C7.41 4.98 7.08 5.31 6.66 5.31L4.78 5.31L4.78 7.07C4.78 7.49 4.45 7.82 4.03 7.82C3.62 7.82 3.28 7.49 3.28 7.07L3.28 5.31L1.5 5.31C1.09 5.31 0.75 4.98 0.75 4.56C0.75 4.15 1.09 3.81 1.5 3.81L3.28 3.81L3.28 2.05C3.28 1.64 3.62 1.3 4.03 1.3C4.45 1.3 4.78 1.64 4.78 2.05L4.78 3.81L6.66 3.81ZM9.2 19.43C9.61 19.43 9.95 19.77 9.95 20.18C9.95 20.6 9.61 20.93 9.2 20.93L8.1 20.93L8.1 21.95C8.1 22.36 7.76 22.7 7.35 22.7C6.93 22.7 6.6 22.36 6.6 21.95L6.6 20.93L5.57 20.93C5.16 20.93 4.82 20.6 4.82 20.18C4.82 19.77 5.16 19.43 5.57 19.43L6.6 19.43L6.6 18.42C6.6 18 6.93 17.67 7.35 17.67C7.76 17.67 8.1 18 8.1 18.42L8.1 19.43L9.2 19.43Z" />
	</g>
</svg>