<svg xmlns="http://www.w3.org/2000/svg" viewBox="0 0 24 24" width="24" height="24">
	<style>
		tspan { white-space:pre }
		.shp0 { fill: rgba(255, 255, 255, 0.7) } 
	</style>
	<g id="Layer">
		<path id="Layer" class="shp0" d="M23.64 4.94C22.81 5.31 21.91 5.56 20.97 5.67C21.93 5.09 22.67 4.18 23.02 3.09C22.12 3.63 21.12 4.01 20.06 4.22C19.21 3.32 18 2.75 16.66 2.75C14.09 2.75 12 4.84 12 7.41C12 7.78 12.04 8.13 12.12 8.47C8.25 8.28 4.82 6.42 2.52 3.6C2.12 4.29 1.89 5.09 1.89 5.95C1.89 7.56 2.71 8.99 3.96 9.82C3.2 9.8 2.48 9.59 1.85 9.24L1.85 9.3C1.85 11.56 3.45 13.44 5.59 13.87C5.19 13.97 4.78 14.03 4.36 14.03C4.06 14.03 3.77 14 3.48 13.95C4.08 15.8 5.8 17.15 7.83 17.18C6.24 18.43 4.23 19.18 2.05 19.18C1.67 19.18 1.3 19.16 0.94 19.11C3 20.44 5.45 21.21 8.08 21.21C16.65 21.21 21.33 14.11 21.33 7.95C21.33 7.75 21.33 7.55 21.32 7.35C22.23 6.69 23.02 5.87 23.64 4.94L23.64 4.94Z" />
	</g>
</svg>